<svg xmlns="http://www.w3.org/2000/svg" width="1202.2691802978516" height="1408.0619812011719" style="background: rgba(0, 0, 0, 0);"><rect width="100%" height="100%" fill="rgba(0,0,0,0)"/><g transform="translate(601.1345825195312,704.031005859375) scale(1) translate(-139.60790252685547,31.498245239257812)"><polyline points="98.50381551445633,-41.713566826728496 14.030506892809516,-45.67321135786414" stroke="#454545" stroke-width="2.5" fill="none"/><polygon points="6.4138700119140815,-46.030237441762026 17.446679951982333,-41.133276156808755 17.85638201547171,-49.873679134885485" fill="#454545"/><text x="56.267161203632924" y="-48.693389092296314" text-anchor="middle" dominant-baseline="alphabetic" font-size="7.5" font-family="&quot;Open Sans&quot;, sans-serif" fill="#959aa1ff" transform="rotate(2.6837468627991545,56.267161203632924,-43.693389092296314)"><tspan>PRODUCES</tspan></text><path d="M-102.68485883833547,163.8642705883773 Q-96.01981336262628,121.4755402995494,-88.54349674627453,103.34377101650468 Q-81.06718012992278,85.21200173345996,-81.06718012992278,85.21200173345996" stroke="#454545" stroke-width="2.5" fill="none"/><polygon points="-78.16054130576555,78.16274108102967 -86.49368256821161,86.89554599698414 -78.40436706542276,90.23103317224653" fill="#454545"/><text x="-93.9479164233777" y="118.00683823023402" text-anchor="middle" dominant-baseline="alphabetic" font-size="7.5" font-family="&quot;Open Sans&quot;, sans-serif" fill="#959aa1ff" transform="rotate(-74.1781450669413,-93.9479164233777,123.00683823023402)"><tspan>PRODUCES</tspan></text><path d="M89.45764557410074,81.34369501162595 Q30.06552382871635,75.35237665261215,3.0569716676672485,67.89626609802121 Q-23.951580493381854,60.44015554343029,-23.951580493381854,60.44015554343029" stroke="#454545" stroke-width="2.5" fill="none"/><polygon points="-31.301642087705485,58.411062258327625 -21.621522767860675,65.62205490522217 -19.293055063644495,57.18755799370325" fill="#454545"/><text x="31.409278184537897" y="68.12215096507013" text-anchor="middle" dominant-baseline="alphabetic" font-size="7.5" font-family="&quot;Open Sans&quot;, sans-serif" fill="#959aa1ff" transform="rotate(10.675404880494154,31.409278184537897,73.12215096507013)"><tspan>PRODUCES</tspan></text><polyline points="148.9063978086422,198.44666998593928 82.22749211178636,285.9586896111589" stroke="#454545" stroke-width="2.5" fill="none"/><polygon points="77.60627748382488,292.0237535318702 87.90441770909425,285.7268151567002 80.94450829188446,280.4237819770722" fill="#454545"/><text x="115.56694496021427" y="237.20267979854907" text-anchor="middle" dominant-baseline="alphabetic" font-size="7.5" font-family="&quot;Open Sans&quot;, sans-serif" fill="#959aa1ff" transform="rotate(-52.69477535332094,115.56694496021427,242.20267979854907)"><tspan>PRODUCES</tspan></text><polyline points="303.56775597684697,-125.70132429274095 290.91928611081954,-82.01813429232267" stroke="#454545" stroke-width="2.5" fill="none"/><polygon points="288.79857720919694,-74.69398118397092 296.12987491310423,-84.28330853142776 287.7251090510613,-86.71690891033893" fill="#454545"/><text x="297.24352104383325" y="-108.85972929253181" text-anchor="middle" dominant-baseline="alphabetic" font-size="7.5" font-family="&quot;Open Sans&quot;, sans-serif" fill="#959aa1ff" transform="rotate(-73.85162413636554,297.24352104383325,-103.85972929253181)"><tspan>PRODUCES</tspan></text><polyline points="391.6401343472927,-80.97580724658256 318.13637150687737,-55.05624858296067" stroke="#454545" stroke-width="2.5" fill="none"/><polygon points="310.9453659573675,-52.520491459946186 323.0099888878822,-52.135785670412744 320.1001036647508,-60.38775925181747" fill="#454545"/><text x="354.88825292708503" y="-73.01602791477161" text-anchor="middle" dominant-baseline="alphabetic" font-size="7.5" font-family="&quot;Open Sans&quot;, sans-serif" fill="#959aa1ff" transform="rotate(-19.424128330041476,354.88825292708503,-68.01602791477161)"><tspan>PRODUCES</tspan></text><path d="M302.7766618839197,146.88673936295422 Q243.1498011091212,212.99965745879715,211.5558068054296,240.91043732345025 Q179.96181250173802,268.82121718810333,179.96181250173802,268.82121718810333" stroke="#454545" stroke-width="2.5" fill="none"/><polygon points="174.24732620733698,273.86951109704944 185.57509757306173,269.700012219982 179.7819734152547,263.1424049968988" fill="#454545"/><text x="242.25951915097502" y="205.42681786716298" text-anchor="middle" dominant-baseline="alphabetic" font-size="7.5" font-family="&quot;Open Sans&quot;, sans-serif" fill="#959aa1ff" transform="rotate(-44.688931262202985,242.25951915097502,210.42681786716298)"><tspan>PRODUCES</tspan></text><path d="M-156.67851712577155,-198.27059071803984 Q-185.92782149934126,-219.59869068179276,-195.90667187786102,-232.41866623863604 Q-205.8855222563808,-245.23864179547928,-205.8855222563808,-245.23864179547928" stroke="#454545" stroke-width="2.5" fill="none"/><polygon points="-210.56908793807207,-251.255687374938 -207.11131226477434,-239.69078735837277 -200.2065058621168,-245.0653709275267" fill="#454545"/><text x="-183.60492059520874" y="-225.67665346927618" text-anchor="middle" dominant-baseline="alphabetic" font-size="7.5" font-family="&quot;Open Sans&quot;, sans-serif" fill="#959aa1ff" transform="rotate(44.30957938391843,-183.60492059520874,-220.67665346927618)"><tspan>PRODUC...</tspan></text><path d="M368.6370790916129,22.0699573040581 Q335.2389190150182,6.908050240770201,322.6482386383003,-3.7351895694905792 Q310.05755826158247,-14.37842937975136,310.05755826158247,-14.37842937975136" stroke="#454545" stroke-width="2.5" fill="none"/><polygon points="304.23436375981,-19.300931872846398 310.001575528682,-8.697046103328532 315.65034888141406,-15.37940044962481" fill="#454545"/><text x="337.29311884580795" y="0.37690710146178574" text-anchor="middle" dominant-baseline="alphabetic" font-size="7.5" font-family="&quot;Open Sans&quot;, sans-serif" fill="#959aa1ff" transform="rotate(32.51598215378849,337.29311884580795,5.376907101461786)"><tspan>PRODUC...</tspan></text><path d="M-222.7502761454711,95.64789856789616 Q-210.7012180656914,65.37881608232466,-201.51944700794343,54.251943417770356 Q-192.33767595019546,43.12507075321605,-192.33767595019546,43.12507075321605" stroke="#454545" stroke-width="2.5" fill="none"/><polygon points="-187.4845951521877,37.24389470007769 -198.0193235731802,43.13648514027737 -191.27043302039846,48.705594252745314" fill="#454545"/><text x="-209.12259705676234" y="62.38265037144038" text-anchor="middle" dominant-baseline="alphabetic" font-size="7.5" font-family="&quot;Open Sans&quot;, sans-serif" fill="#959aa1ff" transform="rotate(-59.127332319867044,-209.12259705676234,67.38265037144038)"><tspan>PRODUC...</tspan></text><path d="M-195.314423279549,-60.38903242375972 Q-181.73899888331846,-45.476875263627456,-179.94716926462513,-37.53820812918808 Q-178.1553396459318,-29.599540994748708,-178.1553396459318,-29.599540994748708" stroke="#454545" stroke-width="2.5" fill="none"/><polygon points="-176.47653928780034,-22.16164785505265 -174.68581424423428,-34.09883466008947 -183.22110145372153,-32.17234244584025" fill="#454545"/><text x="-184.23694017302944" y="-50.23558098644084" text-anchor="middle" dominant-baseline="alphabetic" font-size="7.5" font-family="&quot;Open Sans&quot;, sans-serif" fill="#959aa1ff" transform="rotate(63.114497790849086,-184.23694017302944,-45.23558098644084)"><tspan>PRO...</tspan></text><path d="M351.74517564680275,413.2914494828872 Q336.5432257462342,363.9239220249261,334.06190350345173,340.05803729984814 Q331.58058126066925,316.19215257477015,331.58058126066925,316.19215257477015" stroke="#454545" stroke-width="2.5" fill="none"/><polygon points="330.792064751964,308.6080331983693 327.60390586031554,320.25014502920146 336.30699366930014,319.3452900192118" fill="#454545"/><text x="339.1030520999851" y="359.3328615268774" text-anchor="middle" dominant-baseline="alphabetic" font-size="7.5" font-family="&quot;Open Sans&quot;, sans-serif" fill="#959aa1ff" transform="rotate(78.57897043231857,339.1030520999851,364.3328615268774)"><tspan>PRODUCES</tspan></text><path d="M264.6912425102183,374.3152043020927 Q280.59247227991267,336.69775592358087,291.79080382429896,321.87794938517754 Q302.98913536868525,307.0581428467743,302.98913536868525,307.0581428467743" stroke="#454545" stroke-width="2.5" fill="none"/><polygon points="307.5860367184802,300.97463045833837 297.3131833565654,307.31273812582043 304.29426314657377,312.58787082230646" fill="#454545"/><text x="282.21633060968225" y="333.6922147490072" text-anchor="middle" dominant-baseline="alphabetic" font-size="7.5" font-family="&quot;Open Sans&quot;, sans-serif" fill="#959aa1ff" transform="rotate(-59.839880159503316,282.21633060968225,338.6922147490072)"><tspan>PRODUCE...</tspan></text><path d="M110.67274253157316,-361.49305292103173 Q147.90258520259684,-396.02107792561264,167.9925222846479,-408.3177290963164 Q188.08245936669894,-420.6143802670202,188.08245936669894,-420.6143802670202" stroke="#454545" stroke-width="2.5" fill="none"/><polygon points="194.5859277204338,-424.59502398028684 182.7066706417376,-422.45344132761016 187.27462244384682,-414.9904448561112" fill="#454545"/><text x="148.64009307586645" y="-398.5373972598193" text-anchor="middle" dominant-baseline="alphabetic" font-size="7.5" font-family="&quot;Open Sans&quot;, sans-serif" fill="#959aa1ff" transform="rotate(-37.04878251728593,148.64009307586645,-393.5373972598193)"><tspan>PRODUCES</tspan></text><path d="M101.2452327232662,-55.453375655224875 Q62.64296340754503,-73.53690201196058,47.43893200915442,-85.70151208622292 Q32.23490061076381,-97.86612216048526,32.23490061076381,-97.86612216048526" stroke="#454545" stroke-width="2.5" fill="none"/><polygon points="26.28104050651899,-102.6297525889591 32.3321936931657,-92.18529615926705 37.7986548405947,-99.017594639548" fill="#454545"/><text x="64.69151503728001" y="-80.09832545990781" text-anchor="middle" dominant-baseline="alphabetic" font-size="7.5" font-family="&quot;Open Sans&quot;, sans-serif" fill="#959aa1ff" transform="rotate(32.03395017173133,64.69151503728001,-75.09832545990781)"><tspan>PRODUCES</tspan></text><path d="M94.30756301327924,100.95131411832105 Q70.80411360737655,115.82158674576328,59.014439557554994,118.18451810295922 Q47.22476550773343,120.54744946015515,47.22476550773343,120.54744946015515" stroke="#454545" stroke-width="2.5" fill="none"/><polygon points="39.748447806364474,122.04588151673867 51.63883657855513,124.12477060617138 49.919324382475665,115.54538963738733" fill="#454545"/><text x="70.78513893394144" y="108.28548426750069" text-anchor="middle" dominant-baseline="alphabetic" font-size="7.5" font-family="&quot;Open Sans&quot;, sans-serif" fill="#959aa1ff" transform="rotate(-21.481819496279915,70.78513893394144,113.28548426750069)"><tspan>PRODU...</tspan></text><path d="M138.8560141460378,187.92968483914586 Q107.56427212149755,206.48367955287364,91.76599698341013,210.64035608916708 Q75.96772184532271,214.79703262546053,75.96772184532271,214.79703262546053" stroke="#454545" stroke-width="2.5" fill="none"/><polygon points="68.59369070725708,216.73721039433596 80.58662553244638,218.105654503082 78.36019202717948,209.6436515577608" fill="#454545"/><text x="107.4880700585889" y="198.92351914258842" text-anchor="middle" dominant-baseline="alphabetic" font-size="7.5" font-family="&quot;Open Sans&quot;, sans-serif" fill="#959aa1ff" transform="rotate(-22.496652096044116,107.4880700585889,203.92351914258842)"><tspan>PRODUC...</tspan></text><polyline points="341.88879900903254,-182.30384515363906 376.41393337382794,-206.29090774524934" stroke="#454545" stroke-width="2.5" fill="none"/><polygon points="382.6759211289645,-210.6415553240035 370.94064960078924,-207.81551088698558 375.9331960026383,-200.62962329912392" fill="#454545"/><text x="359.15136619143027" y="-199.2973764494442" text-anchor="middle" dominant-baseline="alphabetic" font-size="7.5" font-family="&quot;Open Sans&quot;, sans-serif" fill="#959aa1ff" transform="rotate(-34.79045280221076,359.15136619143027,-194.2973764494442)"><tspan>PRODUCE...</tspan></text><polyline points="420.739454295448,-129.92484104788025 414.72326299109864,-187.60973385148802" stroke="#454545" stroke-width="2.5" fill="none"/><polygon points="413.93231088935624,-195.1935996053598 410.7478910167546,-183.55046450028695 419.45068778349275,-184.45811445310605" fill="#454545"/><text x="417.7313586432733" y="-163.76728744968415" text-anchor="middle" dominant-baseline="alphabetic" font-size="7.5" font-family="&quot;Open Sans&quot;, sans-serif" fill="#959aa1ff" transform="rotate(84.04591665108022,417.7313586432733,-158.76728744968415)"><tspan>PRODUCES</tspan></text><path d="M331.12573488053306,153.50501734784243 Q337.53837760162395,194.59123687916215,335.8754988608697,213.4659564969452 Q334.2126201201154,232.34067611472827,334.2126201201154,232.34067611472827" stroke="#454545" stroke-width="2.5" fill="none"/><polygon points="333.54344315495956,239.93625556525768 338.88887278828014,229.11361692972991 330.17263407455783,228.34570893692813" fill="#454545"/><text x="335.1037775509741" y="188.75704180522376" text-anchor="middle" dominant-baseline="alphabetic" font-size="7.5" font-family="&quot;Open Sans&quot;, sans-serif" fill="#959aa1ff" transform="rotate(88.24128786917282,335.1037775509741,193.75704180522376)"><tspan>PRODUCE...</tspan></text><path d="M429.5824836617553,60.81900377222662 Q452.04537308096576,79.31666587674319,458.47848411963264,90.23576200214589 Q464.9115951582996,101.1548581275486,464.9115951582996,101.1548581275486" stroke="#454545" stroke-width="2.5" fill="none"/><polygon points="468.78214328010506,107.72444580386345 466.840934062212,95.81080522793674 459.30206295824416,100.25241782672994" fill="#454545"/><text x="449.6462062454966" y="75.15179841331539" text-anchor="middle" dominant-baseline="alphabetic" font-size="7.5" font-family="&quot;Open Sans&quot;, sans-serif" fill="#959aa1ff" transform="rotate(49.79965758689953,449.6462062454966,80.15179841331539)"><tspan>PRODU...</tspan></text><path d="M81.94256748096674,-371.67730246936725 Q79.97224094040399,-422.6209611022645,83.71909457721878,-445.97966332793715 Q87.46594821403357,-469.33836555360983,87.46594821403357,-469.33836555360983" stroke="#454545" stroke-width="2.5" fill="none"/><polygon points="88.67359904471513,-476.8671240482857 82.57203966643652,-466.45203412292545 91.2115985947531,-465.0662053008319" fill="#454545"/><text x="82.33824939395208" y="-426.56439755687654" text-anchor="middle" dominant-baseline="alphabetic" font-size="7.5" font-family="&quot;Open Sans&quot;, sans-serif" fill="#959aa1ff" transform="rotate(-86.44378041188821,82.33824939395208,-421.56439755687654)"><tspan>PRODUCES</tspan></text><path d="M143.9444272822407,-76.49890725667358 Q145.1454261241971,-93.28093431356271,149.30363355773298,-98.15775260547099 Q153.46184099126887,-103.03457089737925,153.46184099126887,-103.03457089737925" stroke="#454545" stroke-width="2.5" fill="none"/><polygon points="158.40907276775218,-108.83677071725394 147.78074729924217,-103.11472364165056 154.43900938762297,-97.43757242273529" fill="#454545"/><text x="146.92428013047595" y="-96.52383669529456" text-anchor="middle" dominant-baseline="alphabetic" font-size="7.5" font-family="&quot;Open Sans&quot;, sans-serif" fill="#959aa1ff" transform="rotate(-66.85101065116184,146.92428013047595,-91.52383669529456)"><tspan>PRO...</tspan></text><path d="M203.20791230555497,184.24757143728638 Q254.73551509106568,212.15085348201058,276.2965611841484,229.1726072683859 Q297.8576072772311,246.19436105476117,297.8576072772311,246.19436105476117" stroke="#454545" stroke-width="2.5" fill="none"/><polygon points="303.84235519958094,250.9191274305653 297.72333077567373,240.51428888786668 292.30146772147225,247.38203240531735" fill="#454545"/><text x="252.63413744122937" y="208.68590986401716" text-anchor="middle" dominant-baseline="alphabetic" font-size="7.5" font-family="&quot;Open Sans&quot;, sans-serif" fill="#959aa1ff" transform="rotate(33.444878809012486,252.63413744122937,213.68590986401716)"><tspan>PRODUCES</tspan></text><polyline points="277.07943155113986,-153.94340085486812 217.8994559237099,-144.23387926769922" stroke="#454545" stroke-width="2.5" fill="none"/><polygon points="210.375055114283,-142.99936824745845 222.18495607423128,-140.50349879650315 220.7683040837911,-149.13805710240285" fill="#454545"/><text x="247.4894437374249" y="-154.08864006128368" text-anchor="middle" dominant-baseline="alphabetic" font-size="7.5" font-family="&quot;Open Sans&quot;, sans-serif" fill="#959aa1ff" transform="rotate(-9.31737534910543,247.4894437374249,-149.08864006128368)"><tspan>PRODUCES</tspan></text><path d="M309.1469333533387,84.51373453057761 Q291.4155771812851,41.677238630455335,287.7005919167799,20.66033285400266 Q283.98560665227467,-0.35657292245001493,283.98560665227467,-0.35657292245001493" stroke="#454545" stroke-width="2.5" fill="none"/><polygon points="282.65837326728234,-7.865173094370338 280.30837324485765,3.974616806409324 288.9247996716515,2.4515621023198073" fill="#454545"/><text x="293.9909235920459" y="36.87790971725957" text-anchor="middle" dominant-baseline="alphabetic" font-size="7.5" font-family="&quot;Open Sans&quot;, sans-serif" fill="#959aa1ff" transform="rotate(73.87386267911131,293.9909235920459,41.87790971725957)"><tspan>PRODUCES</tspan></text><path d="M62.20541582285634,-307.04027967842484 Q34.415021049681144,-274.9503744707258,18.632918910077166,-263.69816109469275 Q2.850816770473186,-252.44594771865962,2.850816770473186,-252.44594771865962" stroke="#454545" stroke-width="2.5" fill="none"/><polygon points="-3.3577532434283652,-248.0194046676454 8.34225180635259,-250.98807555460814 3.2626122396149304,-258.11266409515093" fill="#454545"/><text x="33.47156867317295" y="-282.346744084634" text-anchor="middle" dominant-baseline="alphabetic" font-size="7.5" font-family="&quot;Open Sans&quot;, sans-serif" fill="#959aa1ff" transform="rotate(-42.14422782300209,33.47156867317295,-277.346744084634)"><tspan>PRODUCE...</tspan></text><path d="M104.0564292854535,-21.370185234205774 Q40.08917943173444,12.468397474814099,8.402157554405523,23.933994984545908 Q-23.284864322923397,35.39959249427772,-23.284864322923397,35.39959249427772" stroke="#454545" stroke-width="2.5" fill="none"/><polygon points="-30.454919293552372,37.99399738136815 -18.387556696752814,38.280152858972656 -21.364742632758233,30.052220925464" fill="#454545"/><text x="40.23748095649975" y="4.741550552425036" text-anchor="middle" dominant-baseline="alphabetic" font-size="7.5" font-family="&quot;Open Sans&quot;, sans-serif" fill="#959aa1ff" transform="rotate(-23.86739962383514,40.23748095649975,9.741550552425036)"><tspan>PRODUCES</tspan></text><path d="M48.823479597905,-333.1651682131031 Q-1.7818680125307986,-332.7113519368399,-24.828401838606517,-337.14860909849017 Q-47.87493566468223,-341.5858662601405,-47.87493566468223,-341.5858662601405" stroke="#454545" stroke-width="2.5" fill="none"/><polygon points="-55.36241945116574,-343.02746660251927 -45.142459962636906,-336.6044180231584 -43.48816448777603,-345.1966125322379" fill="#454545"/><text x="-0.6537980229597079" y="-340.0434345867309" text-anchor="middle" dominant-baseline="alphabetic" font-size="7.5" font-family="&quot;Open Sans&quot;, sans-serif" fill="#959aa1ff" transform="rotate(5.300905847500542,-0.6537980229597079,-335.0434345867309)"><tspan>PRODUCES</tspan></text><path d="M118.81408272986316,-321.0609504939385 Q157.63889424803043,-303.06020505060997,172.9677414782688,-290.91815225493474 Q188.29658870850716,-278.77609945925946,188.29658870850716,-278.77609945925946" stroke="#454545" stroke-width="2.5" fill="none"/><polygon points="194.27366358870609,-274.0416300194494 188.17152737846752,-284.45638199305375 182.73852966065274,-277.5974436059402" fill="#454545"/><text x="155.5971149836078" y="-306.48936501360447" text-anchor="middle" dominant-baseline="alphabetic" font-size="7.5" font-family="&quot;Open Sans&quot;, sans-serif" fill="#959aa1ff" transform="rotate(31.779383844472157,155.5971149836078,-301.48936501360447)"><tspan>PRODUCES</tspan></text><polyline points="61.68772709552404,-362.92869700865964 -14.302037173790886,-457.0667106539387" stroke="#454545" stroke-width="2.5" fill="none"/><polygon points="-19.091399169387,-462.99989164520633 -15.429411547923342,-451.49802346389566 -8.62084319728835,-456.99401263916985" fill="#454545"/><text x="23.692844960866577" y="-414.9977038312992" text-anchor="middle" dominant-baseline="alphabetic" font-size="7.5" font-family="&quot;Open Sans&quot;, sans-serif" fill="#959aa1ff" transform="rotate(51.08895651442531,23.692844960866577,-409.9977038312992)"><tspan>PRODUCES</tspan></text><path d="M-79.42993686724226,176.324156715988 Q-57.03091924914101,156.28115210216328,-44.87236181518043,151.25520564935755 Q-32.71380438121986,146.2292591965518,-32.71380438121986,146.2292591965518" stroke="#454545" stroke-width="2.5" fill="none"/><polygon points="-25.667115685468424,143.31639060611232 -37.73518754256697,143.57088353706732 -34.392551455177404,151.6572476141591" fill="#454545"/><text x="-56.55139493668604" y="153.77893002921658" text-anchor="middle" dominant-baseline="alphabetic" font-size="7.5" font-family="&quot;Open Sans&quot;, sans-serif" fill="#959aa1ff" transform="rotate(-31.842826512194737,-56.55139493668604,158.77893002921658)"><tspan>PRODU...</tspan></text><polyline points="344.68769478858474,147.7328281569084 472.3953915015144,349.9207211542428" stroke="#454545" stroke-width="2.5" fill="none"/><polygon points="476.4673178120981,356.36742892807405 474.1584883716319,344.5195417065127 466.7606269918255,349.1922440301334" fill="#454545"/><text x="408.54154314504956" y="243.8267746555756" text-anchor="middle" dominant-baseline="alphabetic" font-size="7.5" font-family="&quot;Open Sans&quot;, sans-serif" fill="#959aa1ff" transform="rotate(57.72231377049625,408.54154314504956,248.8267746555756)"><tspan>PRODUCES</tspan></text><polyline points="337.8162368536667,151.34260939832365 395.18168394106107,309.03395419577214" stroke="#454545" stroke-width="2.5" fill="none"/><polygon points="397.7884034635345,316.1995412848497 398.05382626837235,304.1317048700373 389.83102141205376,307.1230223548429" fill="#454545"/><text x="366.4989603973639" y="225.1882817970479" text-anchor="middle" dominant-baseline="alphabetic" font-size="7.5" font-family="&quot;Open Sans&quot;, sans-serif" fill="#959aa1ff" transform="rotate(70.00946806931273,366.4989603973639,230.1882817970479)"><tspan>PRODUCES</tspan></text><path d="M291.2433707198482,102.37852488030109 Q268.0986008561938,93.46698998998603,260.6384743646817,86.07707180051807 Q253.17834787316966,78.6871536110501,253.17834787316966,78.6871536110501" stroke="#454545" stroke-width="2.5" fill="none"/><polygon points="247.76122828579236,73.32101529974531 252.67476799019053,84.34645191573938 258.83263162611405,78.13008517612607" fill="#454545"/><text x="270.15473007635137" y="86.99991461783083" text-anchor="middle" dominant-baseline="alphabetic" font-size="7.5" font-family="&quot;Open Sans&quot;, sans-serif" fill="#959aa1ff" transform="rotate(33.32265902239709,270.15473007635137,91.99991461783083)"><tspan>PROD...</tspan></text><path d="M310.2008836551478,151.12171475955614 Q240.08931223781494,273.63213106035795,201.94213132281436,330.4325946277837 Q163.7949504078138,387.2330581952095,163.7949504078138,387.2330581952095" stroke="#454545" stroke-width="2.5" fill="none"/><polygon points="159.543767609404,393.56299261939625 169.44793411273875,386.6629483532903 162.18407493744243,381.7845418633118" fill="#454545"/><text x="238.54361463464784" y="266.40475876887035" text-anchor="middle" dominant-baseline="alphabetic" font-size="7.5" font-family="&quot;Open Sans&quot;, sans-serif" fill="#959aa1ff" transform="rotate(-58.15678451321973,238.54361463464784,271.40475876887035)"><tspan>PRODUCES</tspan></text><path d="M356.42305434373054,135.16642896201438 Q426.24054805221755,182.41125321518723,456.27416612400157,208.46758017972266 Q486.3077841957856,234.5239071442581,486.3077841957856,234.5239071442581" stroke="#454545" stroke-width="2.5" fill="none"/><polygon points="492.06733191365544,239.52072964316477 486.43666786207257,228.84371005255744 480.70260925676985,235.45302710585074" fill="#454545"/><text x="423.8029836609878" y="178.62821063416175" text-anchor="middle" dominant-baseline="alphabetic" font-size="7.5" font-family="&quot;Open Sans&quot;, sans-serif" fill="#959aa1ff" transform="rotate(37.53209584038802,423.8029836609878,183.62821063416175)"><tspan>PRODUCES</tspan></text><path d="M154.0665407357304,-72.15497585627784 Q165.69979900325254,-85.4047725971333,166.22460723283064,-91.3853239970417 Q166.74941546240873,-97.36587539695007,166.74941546240873,-97.36587539695007" stroke="#434343" stroke-width="2.5" fill="none"/><polygon points="167.41596667182625,-104.96168572141342 162.07427863569848,-94.13719987105132 170.790782286722,-93.37230504057219" fill="#434343"/><text x="163.05388855116104" y="-90.08259911187363" text-anchor="middle" dominant-baseline="alphabetic" font-size="7.5" font-family="&quot;Open Sans&quot;, sans-serif" fill="#959aa1ff" transform="rotate(-66.85101065116184,163.05388855116104,-85.08259911187363)"><tspan>CON...</tspan></text><path d="M-92.02944910307343,166.88632940236758 Q-75.1987833511374,126.3626678638878,-72.17720122737262,107.47542819573806 Q-69.15561910360783,88.58818852758831,-69.15561910360783,88.58818852758831" stroke="#434343" stroke-width="2.5" fill="none"/><polygon points="-67.95108776784998,81.05893031305102 -74.04833133714527,91.47654740414664 -65.40819895980738,92.85879647796712" fill="#434343"/><text x="-77.89565872723901" y="122.04996341443287" text-anchor="middle" dominant-baseline="alphabetic" font-size="7.5" font-family="&quot;Open Sans&quot;, sans-serif" fill="#959aa1ff" transform="rotate(-74.1781450669413,-77.89565872723901,127.04996341443287)"><tspan>CONSUMES</tspan></text><path d="M91.51156318626168,70.45475525860074 Q33.04326695479039,54.228616473708094,5.659611962955196,51.42757916638442 Q-21.724043028879997,48.626541859060744,-21.724043028879997,48.626541859060744" stroke="#434343" stroke-width="2.5" fill="none"/><polygon points="-29.30946327969683,47.85063940481928 -18.56304956371218,53.34770382548028 -17.672669698189186,44.64312320978884" fill="#434343"/><text x="33.968513516740614" y="51.88463251626942" text-anchor="middle" dominant-baseline="alphabetic" font-size="7.5" font-family="&quot;Open Sans&quot;, sans-serif" fill="#959aa1ff" transform="rotate(10.675404880494154,33.968513516740614,56.88463251626942)"><tspan>CONSUMES</tspan></text><path d="M134.6228268894209,177.69951280027115 Q98.48091587717033,187.07334236624533,84.81205911224315,195.10992970126944 Q71.14320234731596,203.14651703629357,71.14320234731596,203.14651703629357" stroke="#434343" stroke-width="2.5" fill="none"/><polygon points="64.57013101136265,207.01114615335885 76.48551526272469,205.08066871438328 72.05069496445303,197.53779996820734" fill="#434343"/><text x="100.68196524776938" y="183.74817864226384" text-anchor="middle" dominant-baseline="alphabetic" font-size="7.5" font-family="&quot;Open Sans&quot;, sans-serif" fill="#959aa1ff" transform="rotate(-22.496652096044116,100.68196524776938,188.74817864226384)"><tspan>CONSUM...</tspan></text><path d="M294.98212782247373,139.00629225627878 Q227.51845645894917,198.61095516562952,199.61856931364315,229.54926833030038 Q171.71868216833715,260.48758149497127,171.71868216833715,260.48758149497127" stroke="#434343" stroke-width="2.5" fill="none"/><polygon points="166.61222597861348,266.1501542479196 177.39535882170074,260.7254725901324 170.89732451503872,254.8656048314331" fill="#434343"/><text x="230.4344307271773" y="194.17894602062728" text-anchor="middle" dominant-baseline="alphabetic" font-size="7.5" font-family="&quot;Open Sans&quot;, sans-serif" fill="#959aa1ff" transform="rotate(-44.688931262202985,230.4344307271773,199.17894602062728)"><tspan>CONSUMES</tspan></text><path d="M-148.94245474344848,-206.19058485405128 Q-171.6623396895339,-235.59339407217269,-184.36692531124976,-244.93022024586028 Q-197.07151093296562,-254.26704641954788,-197.07151093296562,-254.26704641954788" stroke="#434343" stroke-width="2.5" fill="none"/><polygon points="-203.2157032127746,-258.7825227209734 -196.74134854666124,-248.59498834520926 -191.55965443027128,-255.64570079744905" fill="#434343"/><text x="-172.3346612638705" y="-237.91110485448615" text-anchor="middle" dominant-baseline="alphabetic" font-size="7.5" font-family="&quot;Open Sans&quot;, sans-serif" fill="#959aa1ff" transform="rotate(44.30957938391843,-172.3346612638705,-232.91110485448615)"><tspan>CONSUM...</tspan></text><path d="M374.5912350810247,12.735624328415168 Q345.93119195869554,-11.661703401724468,331.3803997425666,-18.331360274517362 Q316.8296075264377,-25.001017147310254,316.8296075264377,-25.001017147310254" stroke="#434343" stroke-width="2.5" fill="none"/><polygon points="309.8980863692436,-28.178223380366354 318.3019336805633,-19.51343974959844 321.9479080463654,-27.467644356214628" fill="#434343"/><text x="345.8208066312134" y="-13.897199905586005" text-anchor="middle" dominant-baseline="alphabetic" font-size="7.5" font-family="&quot;Open Sans&quot;, sans-serif" fill="#959aa1ff" transform="rotate(32.51598215378849,345.8208066312134,-8.897199905586005)"><tspan>CONSUM...</tspan></text><path d="M-213.25288529415621,101.33061259378763 Q-191.80174527510715,75.56301509520839,-186.5825605848642,62.62457802998512 Q-181.36337589462127,49.68614096476186,-181.36337589462127,49.68614096476186" stroke="#434343" stroke-width="2.5" fill="none"/><polygon points="-178.51089285301623,42.61479275544876 -186.77680532958038,51.41125886007175 -178.6621434500408,54.684600055356235" fill="#434343"/><text x="-194.55493793474795" y="70.53569593724157" text-anchor="middle" dominant-baseline="alphabetic" font-size="7.5" font-family="&quot;Open Sans&quot;, sans-serif" fill="#959aa1ff" transform="rotate(-59.127332319867044,-194.55493793474795,75.53569593724157)"><tspan>CONSUM...</tspan></text><path d="M-205.1633239413659,-55.407289580665314 Q-200.74851284956378,-34.84303001691473,-195.62821423549806,-29.086925707629288 Q-190.50791562143235,-23.330821398343843,-190.50791562143235,-23.330821398343843" stroke="#434343" stroke-width="2.5" fill="none"/><polygon points="-185.44006198563912,-17.633674346864705 -189.64836822202633,-28.94708601712512 -196.1860779532319,-23.1315162711329" fill="#434343"/><text x="-199.29206631548146" y="-42.10604275320965" text-anchor="middle" dominant-baseline="alphabetic" font-size="7.5" font-family="&quot;Open Sans&quot;, sans-serif" fill="#959aa1ff" transform="rotate(63.114497790849086,-199.29206631548146,-37.10604275320965)"><tspan>CON...</tspan></text><path d="M362.6051821321099,411.0992364633301 Q357.25583980939183,358.7372405261176,350.3802139154885,336.26058995857034 Q343.50458802158516,313.783939391023,343.50458802158516,313.783939391023" stroke="#434343" stroke-width="2.5" fill="none"/><polygon points="341.2741192673585,306.4924625765211 340.3813405685525,318.53015634214574 348.74860904421035,315.97060203401685" fill="#434343"/><text x="355.15536244311966" y="355.5894142266471" text-anchor="middle" dominant-baseline="alphabetic" font-size="7.5" font-family="&quot;Open Sans&quot;, sans-serif" fill="#959aa1ff" transform="rotate(78.57897043231857,355.15536244311966,360.5894142266471)"><tspan>CONSUMES</tspan></text><path d="M274.2652394834869,379.88154137257584 Q299.56352044106086,346.5970212343329,306.656490880373,329.95424298422984 Q313.74946131968517,313.3114647341268,313.74946131968517,313.3114647341268" stroke="#434343" stroke-width="2.5" fill="none"/><polygon points="316.7389719738008,306.29694756977904 308.30349558654547,314.93094219104546 316.35294151284614,318.3615281875716" fill="#434343"/><text x="296.7854354213234" y="341.59676214384206" text-anchor="middle" dominant-baseline="alphabetic" font-size="7.5" font-family="&quot;Open Sans&quot;, sans-serif" fill="#959aa1ff" transform="rotate(-59.839880159503316,296.7854354213234,346.59676214384206)"><tspan>CONSUME...</tspan></text><path d="M117.34628557907264,-352.6497771073441 Q161.53886007162666,-379.5869147169326,178.4805382104148,-395.23864507311106 Q195.42221634920296,-410.8903754292895,195.42221634920296,-410.8903754292895" stroke="#434343" stroke-width="2.5" fill="none"/><polygon points="201.02290762021292,-416.0646272869819 189.79075959709604,-411.6439965868678 195.72842566330036,-405.2169738168563" fill="#434343"/><text x="158.96155551788223" y="-385.67849549262473" text-anchor="middle" dominant-baseline="alphabetic" font-size="7.5" font-family="&quot;Open Sans&quot;, sans-serif" fill="#959aa1ff" transform="rotate(-37.04878251728593,158.96155551788223,-380.67849549262473)"><tspan>CONSUMES</tspan></text><path d="M99.57292850804656,-31.50549020991994 Q30.601971298518716,-6.5250154977635475,1.2577175325453531,9.010583236410595 Q-28.08653623342801,24.546181970584737,-28.08653623342801,24.546181970584737" stroke="#434343" stroke-width="2.5" fill="none"/><polygon points="-34.82538058182165,28.113898586029844 -22.835772829428098,26.716604435271115 -26.929873863545435,18.98350436334399" fill="#434343"/><text x="33.172583717913994" y="-10.002334808715574" text-anchor="middle" dominant-baseline="alphabetic" font-size="7.5" font-family="&quot;Open Sans&quot;, sans-serif" fill="#959aa1ff" transform="rotate(-23.86739962383514,33.172583717913994,-5.002334808715575)"><tspan>CONSUMES</tspan></text><path d="M-73.59655731064615,185.72588231693956 Q-44.891044555537384,174.02883343221785,-35.39198915944937,165.6201899078457 Q-25.89293376336136,157.2115463834736,-25.89293376336136,157.2115463834736" stroke="#434343" stroke-width="2.5" fill="none"/><polygon points="-20.183515501568092,152.15752144171663 -31.507097739648223,156.33838382852585 -25.707396986812356,162.89017527648534" fill="#434343"/><text x="-47.317895046270564" y="167.74877389121224" text-anchor="middle" dominant-baseline="alphabetic" font-size="7.5" font-family="&quot;Open Sans&quot;, sans-serif" fill="#959aa1ff" transform="rotate(-31.842826512194737,-47.317895046270564,172.74877389121224)"><tspan>CONSU...</tspan></text><path d="M90.26229523213472,90.65693252160082 Q62.047817052952034,96.14109343956302,52.241582114447425,102.2601422404297 Q42.43534717594282,108.37919104129637,42.43534717594282,108.37919104129637" stroke="#434343" stroke-width="2.5" fill="none"/><polygon points="35.96644202923454,112.4157602780234 47.826792627418016,110.1718332096522 43.1946639951083,102.74849943474105" fill="#434343"/><text x="64.1983191284954" y="92.82957761050581" text-anchor="middle" dominant-baseline="alphabetic" font-size="7.5" font-family="&quot;Open Sans&quot;, sans-serif" fill="#959aa1ff" transform="rotate(-21.481819496279915,64.1983191284954,97.82957761050581)"><tspan>CONSU...</tspan></text><path d="M197.09985131669703,193.4928101630882 Q243.81278265777092,230.47755849886232,267.51740120805016,243.35856379688857 Q291.22201975832934,256.2395690949148,291.22201975832934,256.2395690949148" stroke="#434343" stroke-width="2.5" fill="none"/><polygon points="297.9217616255223,259.88018496492657 290.1257745337689,250.66467031488048 285.948018617362,258.35289868706917" fill="#434343"/><text x="243.98685909764205" y="222.6718740639319" text-anchor="middle" dominant-baseline="alphabetic" font-size="7.5" font-family="&quot;Open Sans&quot;, sans-serif" fill="#959aa1ff" transform="rotate(33.444878809012486,243.98685909764205,227.6718740639319)"><tspan>CONSUMES</tspan></text><path d="M320.0559038647063,153.84236517903372 Q316.20632348476863,196.21991431952137,319.00165718811456,214.4706031791194 Q321.79699089146055,232.72129203871742,321.79699089146055,232.72129203871742" stroke="#434343" stroke-width="2.5" fill="none"/><polygon points="322.95139810237174,240.258398180427 325.5727434462706,228.47571285033268 316.9236052508661,229.80044243662422" fill="#434343"/><text x="318.56638543142606" y="189.75087146419847" text-anchor="middle" dominant-baseline="alphabetic" font-size="7.5" font-family="&quot;Open Sans&quot;, sans-serif" fill="#959aa1ff" transform="rotate(88.24128786917282,318.56638543142606,194.75087146419847)"><tspan>CONSUME...</tspan></text><path d="M421.12940849648015,67.95577345467512 Q436.2368248633978,93.9145789930357,445.613987864619,101.72670371697356 Q454.99115086584015,109.5388284409114,454.99115086584015,109.5388284409114" stroke="#434343" stroke-width="2.5" fill="none"/><polygon points="460.8495071956712,114.41943148897096 455.00637665464313,103.85718975340626 449.4056846322797,110.57989373845831" fill="#434343"/><text x="437.148552272279" y="86.33093997041448" text-anchor="middle" dominant-baseline="alphabetic" font-size="7.5" font-family="&quot;Open Sans&quot;, sans-serif" fill="#959aa1ff" transform="rotate(49.79965758689953,437.148552272279,91.33093997041448)"><tspan>CONSU...</tspan></text><path d="M49.848728382053686,-344.19636994105423 Q-0.788614820206901,-354.04363032447793,-23.76851585238078,-353.88201864729103 Q-46.74841688455466,-353.72040697010414,-46.74841688455466,-353.72040697010414" stroke="#434343" stroke-width="2.5" fill="none"/><polygon points="-54.373228327446256,-353.66678365102223 -43.09273904829689,-349.37100821194304 -43.15427400462042,-358.12079183493336" fill="#434343"/><text x="0.38077046427130656" y="-356.50100939002857" text-anchor="middle" dominant-baseline="alphabetic" font-size="7.5" font-family="&quot;Open Sans&quot;, sans-serif" fill="#959aa1ff" transform="rotate(5.300905847500542,0.38077046427130656,-351.50100939002857)"><tspan>CONSUMES</tspan></text><polyline points="171.00252221184658,-42.28234825678259 236.4309910911172,-42.76471362482511" stroke="#434343" stroke-width="2.5" fill="none"/><polygon points="244.05578388103945,-42.820926708263535 232.77383619229605,-47.112870481014696 232.83834300935652,-38.363108263071126" fill="#434343"/><text x="203.7167566514819" y="-47.52353094080385" text-anchor="middle" dominant-baseline="alphabetic" font-size="7.5" font-family="&quot;Open Sans&quot;, sans-serif" fill="#959aa1ff" transform="rotate(-0.42240021110621245,203.7167566514819,-42.52353094080385)"><tspan>CONSUMES</tspan></text><path d="M319.7888828787444,81.43897652705179 Q311.6522613591254,34.80776576429604,303.72022351707705,15.519694161121595 Q295.78818567502867,-3.768377442052852,295.78818567502867,-3.768377442052852" stroke="#434343" stroke-width="2.5" fill="none"/><polygon points="292.8881289662476,-10.820348520117046 293.1206882458878,1.2481659361635304 301.21311407317455,-2.079767991945903" fill="#434343"/><text x="309.72039781800595" y="31.821532653397753" text-anchor="middle" dominant-baseline="alphabetic" font-size="7.5" font-family="&quot;Open Sans&quot;, sans-serif" fill="#959aa1ff" transform="rotate(73.87386267911131,309.72039781800595,36.82153265339775)"><tspan>CONSUMES</tspan></text><polyline points="113.74172543555036,-11.464199556406523 32.07771472766037,96.89238251874633" stroke="#434343" stroke-width="2.5" fill="none"/><polygon points="27.48846408406635,102.98166848101414 37.75334222509644,96.63065267645163 30.765637022494026,91.36429947888473" fill="#434343"/><text x="72.90972008160537" y="37.7140914811699" text-anchor="middle" dominant-baseline="alphabetic" font-size="7.5" font-family="&quot;Open Sans&quot;, sans-serif" fill="#959aa1ff" transform="rotate(-52.996132019256045,72.90972008160537,42.7140914811699)"><tspan>CONSUMES</tspan></text><path d="M92.9999861918739,-370.9884007079289 Q101.32369334348206,-422.277982871812,100.47246077828272,-445.43014625144474 Q99.62122821308338,-468.5823096310774,99.62122821308338,-468.5823096310774" stroke="#434343" stroke-width="2.5" fill="none"/><polygon points="99.34107012987515,-476.2021611026228 95.38237219519728,-464.79901085096094 104.1264640477904,-465.120503733331" fill="#434343"/><text x="98.81715027298036" y="-426.0316690206576" text-anchor="middle" dominant-baseline="alphabetic" font-size="7.5" font-family="&quot;Open Sans&quot;, sans-serif" fill="#959aa1ff" transform="rotate(-86.44378041188821,98.81715027298036,-421.0316690206576)"><tspan>CONSUMES</tspan></text><path d="M112.97906104095405,-311.6470341038501 Q147.21543947689614,-284.3846439215417,164.49467859542293,-276.3167372348141 Q181.77391771394971,-268.2488305480865,181.77391771394971,-268.2488305480865" stroke="#434343" stroke-width="2.5" fill="none"/><polygon points="188.68291100692932,-265.02292963864073 180.34024109647748,-273.74663205018834 176.6383875938348,-265.81827909103146" fill="#434343"/><text x="147.295964427174" y="-292.16628812375495" text-anchor="middle" dominant-baseline="alphabetic" font-size="7.5" font-family="&quot;Open Sans&quot;, sans-serif" fill="#959aa1ff" transform="rotate(31.779383844472157,147.295964427174,-287.16628812375495)"><tspan>CONSUMES</tspan></text><path d="M54.775620906489436,-315.25389634723234 Q19.355307204230296,-290.1394580843032,6.944916560844936,-275.88793842840363 Q-5.465474082540424,-261.63641877250404,-5.465474082540424,-261.63641877250404" stroke="#434343" stroke-width="2.5" fill="none"/><polygon points="-10.472917141591331,-255.88610234552692 0.21447548560179674,-261.49705269570984 -6.3842482830604705,-267.2432988290469" fill="#434343"/><text x="22.0051903081024" y="-294.2923078220857" text-anchor="middle" dominant-baseline="alphabetic" font-size="7.5" font-family="&quot;Open Sans&quot;, sans-serif" fill="#959aa1ff" transform="rotate(-42.14422782300209,22.0051903081024,-289.2923078220857)"><tspan>CONSUMES</tspan></text><path d="M107.12199310599976,-64.84119144055836 Q73.14992897140615,-92.16661915637879,55.978430512404984,-100.26758412804551 Q38.80693205340382,-108.36854909971225,38.80693205340382,-108.36854909971225" stroke="#434343" stroke-width="2.5" fill="none"/><polygon points="31.91082736002919,-111.62191121574183 40.21872487384365,-102.86508736802425 43.95209123650053,-110.77865013091316" fill="#434343"/><text x="73.05719577555396" y="-94.38574471325705" text-anchor="middle" dominant-baseline="alphabetic" font-size="7.5" font-family="&quot;Open Sans&quot;, sans-serif" fill="#959aa1ff" transform="rotate(32.03395017173133,73.05719577555396,-89.38574471325705)"><tspan>CONSUMES</tspan></text><polyline points="121.23521756356271,-339.71371653237844 239.05213126613612,-350.708202889047" stroke="#434343" stroke-width="2.5" fill="none"/><polygon points="246.6441460576126,-351.4166775929018 235.03631087945192,-354.72746110691406 235.84931463797378,-346.0153129855476" fill="#434343"/><text x="180.14367441484941" y="-350.2109597107127" text-anchor="middle" dominant-baseline="alphabetic" font-size="7.5" font-family="&quot;Open Sans&quot;, sans-serif" fill="#959aa1ff" transform="rotate(-5.331310882492833,180.14367441484941,-345.2109597107127)"><tspan>CONSUMES</tspan></text><path d="M297.3217767230403,93.14576445112318 Q279.18489640834053,74.91878557343198,269.83990018762336,71.23706119322262 Q260.49490396690624,67.55533681301326,260.49490396690624,67.55533681301326" stroke="#434343" stroke-width="2.5" fill="none"/><polygon points="253.40063375191616,64.76034931452524 262.2639084552281,72.95458427171499 265.47127115841107,64.81361845123456" fill="#434343"/><text x="279.04661837665685" y="72.6346681027501" text-anchor="middle" dominant-baseline="alphabetic" font-size="7.5" font-family="&quot;Open Sans&quot;, sans-serif" fill="#959aa1ff" transform="rotate(33.32265902239709,279.04661837665685,77.6346681027501)"><tspan>CONS...</tspan></text><path d="M300.78382013776877,145.27278234777603 Q221.5205524628112,263.2739396942104,187.77832592438628,322.2229272886037 Q154.03609938596136,381.1719148829971,154.03609938596136,381.1719148829971" stroke="#434343" stroke-width="2.5" fill="none"/><polygon points="150.24820959696294,387.7895062836807 159.63387812210698,380.1992262271794 152.03992077706022,375.8524674529189" fill="#434343"/><text x="224.46525611233812" y="258.2481441547985" text-anchor="middle" dominant-baseline="alphabetic" font-size="7.5" font-family="&quot;Open Sans&quot;, sans-serif" fill="#959aa1ff" transform="rotate(-58.15678451321973,224.46525611233812,263.2481441547985)"><tspan>CONSUMES</tspan></text><path d="M349.6702639228201,143.95558759344834 Q414.1013922707507,199.84330658174707,446.62312221754263,221.84533766414555 Q479.14485216433457,243.84736874654402,479.14485216433457,243.84736874654402" stroke="#434343" stroke-width="2.5" fill="none"/><polygon points="485.4603295748907,248.11999909291794 478.59392129903887,238.1924836741783 473.69090286877366,245.43975283383284" fill="#434343"/><text x="414.254475157164" y="191.87239237587164" text-anchor="middle" dominant-baseline="alphabetic" font-size="7.5" font-family="&quot;Open Sans&quot;, sans-serif" fill="#959aa1ff" transform="rotate(37.53209584038802,414.254475157164,196.87239237587164)"><tspan>CONSUMES</tspan></text><path d="M-89.47823755093927,232.02072748157838 Q-73.48506387244198,260.30121361352286,-70.58959582447224,274.3877332468786 Q-67.69412777650251,288.47425288023436,-67.69412777650251,288.47425288023436" stroke="#454545" stroke-width="2.5" fill="none"/><polygon points="-66.15891386038955,295.9431044138889 -64.13857695501676,284.0426269533502 -72.709390190358,285.80434784069297" fill="#454545"/><text x="-76.03562326808144" y="255.27435189721461" text-anchor="middle" dominant-baseline="alphabetic" font-size="7.5" font-family="&quot;Open Sans&quot;, sans-serif" fill="#959aa1ff" transform="rotate(69.70444416430321,-76.03562326808144,260.2743518972146)"><tspan>PRODU...</tspan></text><path d="M-99.86013230794441,235.85578021540798 Q-93.27019649652595,268.6380143809301,-86.48049064688544,280.7743693637909 Q-79.69078479724494,292.9107243466518,-79.69078479724494,292.9107243466518" stroke="#434343" stroke-width="2.5" fill="none"/><polygon points="-75.9679614088306,299.56513724477253 -77.64254589281529,287.61110479517635 -85.27875741524889,291.88319720811086" fill="#434343"/><text x="-91.52282752456031" y="261.51063333098" text-anchor="middle" dominant-baseline="alphabetic" font-size="7.5" font-family="&quot;Open Sans&quot;, sans-serif" fill="#959aa1ff" transform="rotate(69.70444416430321,-91.52282752456031,266.51063333098)"><tspan>CONSUM...</tspan></text><g class="node" data-id="4:e99be028-1f54-486a-8ee0-a10e16f78f63:12"><circle cx="96.12191772460938" cy="-510.52923583984375" r="31.25" fill="#c990c0"/><text x="96.12191772460938" y="-505.36394658364543" text-anchor="middle" dominant-baseline="auto" font-size="10.330578512396693" font-family="&quot;Open Sans&quot;, sans-serif" fill="#1a1b1d"><tspan>oxygen</tspan></text></g><g class="node" data-id="4:e99be028-1f54-486a-8ee0-a10e16f78f63:193"><circle cx="170.0806884765625" cy="169.00669860839844" r="31.25" fill="#4c8eda"/><text x="170.0806884765625" y="169.00669860839844" text-anchor="middle" dominant-baseline="auto" font-size="10.330578512396693" font-family="&quot;Open Sans&quot;, sans-serif" fill="#1a1b1d"><tspan>Fructila</tspan></text><text x="170.0806884765625" y="179.33727712079514" text-anchor="middle" dominant-baseline="auto" font-size="10.330578512396693" font-family="&quot;Open Sans&quot;, sans-serif" fill="#1a1b1d"><tspan>ctobacil</tspan></text></g><g class="node" data-id="4:e99be028-1f54-486a-8ee0-a10e16f78f63:194"><circle cx="56.05327224731445" cy="318.6607666015625" r="31.25" fill="#c990c0"/><text x="56.05327224731445" y="318.6607666015625" text-anchor="middle" dominant-baseline="auto" font-size="10.330578512396693" font-family="&quot;Open Sans&quot;, sans-serif" fill="#1a1b1d"><tspan>riboflavi</tspan></text><text x="56.05327224731445" y="328.9913451139592" text-anchor="middle" dominant-baseline="auto" font-size="10.330578512396693" font-family="&quot;Open Sans&quot;, sans-serif" fill="#1a1b1d"><tspan>n</tspan></text></g><g class="node" data-id="4:e99be028-1f54-486a-8ee0-a10e16f78f63:195"><circle cx="35.07276153564453" cy="224.91957092285156" r="31.25" fill="#c990c0"/><text x="35.07276153564453" y="230.0848601790499" text-anchor="middle" dominant-baseline="auto" font-size="10.330578512396693" font-family="&quot;Open Sans&quot;, sans-serif" fill="#1a1b1d"><tspan>L-lysine</tspan></text></g><g class="node" data-id="4:e99be028-1f54-486a-8ee0-a10e16f78f63:197"><circle cx="329.2906494140625" cy="274.16534423828125" r="31.25" fill="#c990c0"/><text x="329.2906494140625" y="279.33063349447957" text-anchor="middle" dominant-baseline="auto" font-size="10.330578512396693" font-family="&quot;Open Sans&quot;, sans-serif" fill="#1a1b1d"><tspan>citrate</tspan></text></g><g class="node" data-id="4:e99be028-1f54-486a-8ee0-a10e16f78f63:201"><circle cx="312.68927001953125" cy="-160.7991943359375" r="31.25" fill="#4c8eda"/><text x="312.68927001953125" y="-160.7991943359375" text-anchor="middle" dominant-baseline="auto" font-size="10.330578512396693" font-family="&quot;Open Sans&quot;, sans-serif" fill="#1a1b1d"><tspan>Latilact</tspan></text><text x="312.68927001953125" y="-150.4686158235408" text-anchor="middle" dominant-baseline="auto" font-size="10.330578512396693" font-family="&quot;Open Sans&quot;, sans-serif" fill="#1a1b1d"><tspan>obacillu</tspan></text></g><g class="node" data-id="4:e99be028-1f54-486a-8ee0-a10e16f78f63:202"><circle cx="411.3741149902344" cy="-229.36256408691406" r="31.25" fill="#c990c0"/><text x="411.3741149902344" y="-224.1972748307157" text-anchor="middle" dominant-baseline="auto" font-size="10.330578512396693" font-family="&quot;Open Sans&quot;, sans-serif" fill="#1a1b1d"><tspan>acetoin</tspan></text></g><g class="node" data-id="4:e99be028-1f54-486a-8ee0-a10e16f78f63:203"><circle cx="425.49432373046875" cy="-93.97412872314453" r="31.25" fill="#4c8eda"/><text x="425.49432373046875" y="-93.97412872314453" text-anchor="middle" dominant-baseline="auto" font-size="10.330578512396693" font-family="&quot;Open Sans&quot;, sans-serif" fill="#1a1b1d"><tspan>Weissell</tspan></text><text x="425.49432373046875" y="-83.64355021074783" text-anchor="middle" dominant-baseline="auto" font-size="10.330578512396693" font-family="&quot;Open Sans&quot;, sans-serif" fill="#1a1b1d"><tspan>a confu</tspan></text></g><g class="node" data-id="4:e99be028-1f54-486a-8ee0-a10e16f78f63:204"><circle cx="324.48388671875" cy="117.61856842041016" r="31.25" fill="#4c8eda"/><text x="324.48388671875" y="117.61856842041016" text-anchor="middle" dominant-baseline="auto" font-size="10.330578512396693" font-family="&quot;Open Sans&quot;, sans-serif" fill="#1a1b1d"><tspan>Sacchar</tspan></text><text x="324.48388671875" y="127.94914693280685" text-anchor="middle" dominant-baseline="auto" font-size="10.330578512396693" font-family="&quot;Open Sans&quot;, sans-serif" fill="#1a1b1d"><tspan>omyces</tspan></text></g><g class="node" data-id="4:e99be028-1f54-486a-8ee0-a10e16f78f63:205"><circle cx="146.2448272705078" cy="293.93267822265625" r="31.25" fill="#c990c0"/><text x="146.2448272705078" y="293.93267822265625" text-anchor="middle" dominant-baseline="auto" font-size="10.330578512396693" font-family="&quot;Open Sans&quot;, sans-serif" fill="#1a1b1d"><tspan>methan</tspan></text><text x="146.2448272705078" y="304.26325673505295" text-anchor="middle" dominant-baseline="auto" font-size="10.330578512396693" font-family="&quot;Open Sans&quot;, sans-serif" fill="#1a1b1d"><tspan>ol</tspan></text></g><g class="node" data-id="4:e99be028-1f54-486a-8ee0-a10e16f78f63:218"><circle cx="493.9121398925781" cy="385.8587951660156" r="31.25" fill="#c990c0"/><text x="493.9121398925781" y="385.8587951660156" text-anchor="middle" dominant-baseline="auto" font-size="10.330578512396693" font-family="&quot;Open Sans&quot;, sans-serif" fill="#1a1b1d"><tspan>L-ascor</tspan></text><text x="493.9121398925781" y="396.1893736784123" text-anchor="middle" dominant-baseline="auto" font-size="10.330578512396693" font-family="&quot;Open Sans&quot;, sans-serif" fill="#1a1b1d"><tspan>bate</tspan></text></g><g class="node" data-id="4:e99be028-1f54-486a-8ee0-a10e16f78f63:220"><circle cx="408.5575256347656" cy="348.7278137207031" r="31.25" fill="#c990c0"/><text x="408.5575256347656" y="348.7278137207031" text-anchor="middle" dominant-baseline="auto" font-size="10.330578512396693" font-family="&quot;Open Sans&quot;, sans-serif" fill="#1a1b1d"><tspan>all-trans</tspan></text><text x="408.5575256347656" y="359.0583922330998" text-anchor="middle" dominant-baseline="auto" font-size="10.330578512396693" font-family="&quot;Open Sans&quot;, sans-serif" fill="#1a1b1d"><tspan>-retinol</tspan></text></g><g class="node" data-id="4:e99be028-1f54-486a-8ee0-a10e16f78f63:225"><circle cx="222.02606201171875" cy="50.258338928222656" r="31.25" fill="#c990c0"/><text x="222.02606201171875" y="50.258338928222656" text-anchor="middle" dominant-baseline="auto" font-size="10.330578512396693" font-family="&quot;Open Sans&quot;, sans-serif" fill="#1a1b1d"><tspan>D-fructo</tspan></text><text x="222.02606201171875" y="60.58891744061935" text-anchor="middle" dominant-baseline="auto" font-size="10.330578512396693" font-family="&quot;Open Sans&quot;, sans-serif" fill="#1a1b1d"><tspan>se</tspan></text></g><g class="node" data-id="4:e99be028-1f54-486a-8ee0-a10e16f78f63:226"><circle cx="136.95887756347656" cy="419.55670166015625" r="31.25" fill="#c990c0"/><text x="136.95887756347656" y="424.72199091635457" text-anchor="middle" dominant-baseline="auto" font-size="10.330578512396693" font-family="&quot;Open Sans&quot;, sans-serif" fill="#1a1b1d"><tspan>H2O</tspan></text></g><g class="node" data-id="4:e99be028-1f54-486a-8ee0-a10e16f78f63:31"><circle cx="220.44793701171875" cy="-251.5816192626953" r="31.25" fill="#c990c0"/><text x="220.44793701171875" y="-246.41633000649696" text-anchor="middle" dominant-baseline="auto" font-size="10.330578512396693" font-family="&quot;Open Sans&quot;, sans-serif" fill="#1a1b1d"><tspan>sulfate</tspan></text></g><g class="node" data-id="4:e99be028-1f54-486a-8ee0-a10e16f78f63:35"><circle cx="278.3122253417969" cy="-42.07345199584961" r="31.25" fill="#c990c0"/><text x="278.3122253417969" y="-36.90816273965126" text-anchor="middle" dominant-baseline="auto" font-size="10.330578512396693" font-family="&quot;Open Sans&quot;, sans-serif" fill="#1a1b1d"><tspan>ethanol</tspan></text></g><g class="node" data-id="4:e99be028-1f54-486a-8ee0-a10e16f78f63:40"><circle cx="-39.826148986816406" cy="-490.2786865234375" r="31.25" fill="#c990c0"/><text x="-39.826148986816406" y="-490.2786865234375" text-anchor="middle" dominant-baseline="auto" font-size="10.330578512396693" font-family="&quot;Open Sans&quot;, sans-serif" fill="#1a1b1d"><tspan>pyrrolo</tspan></text><text x="-39.826148986816406" y="-479.9481080110408" text-anchor="middle" dominant-baseline="auto" font-size="10.330578512396693" font-family="&quot;Open Sans&quot;, sans-serif" fill="#1a1b1d"><tspan>quinol</tspan></text></g><g class="node" data-id="4:e99be028-1f54-486a-8ee0-a10e16f78f63:41"><circle cx="-32.18703079223633" cy="-229.0862274169922" r="31.25" fill="#c990c0"/><text x="-32.18703079223633" y="-229.0862274169922" text-anchor="middle" dominant-baseline="auto" font-size="10.330578512396693" font-family="&quot;Open Sans&quot;, sans-serif" fill="#1a1b1d"><tspan>phosph</tspan></text><text x="-32.18703079223633" y="-218.7556489045955" text-anchor="middle" dominant-baseline="auto" font-size="10.330578512396693" font-family="&quot;Open Sans&quot;, sans-serif" fill="#1a1b1d"><tspan>ate</tspan></text></g><g class="node" data-id="4:e99be028-1f54-486a-8ee0-a10e16f78f63:5"><circle cx="-88.78303527832031" cy="-351.4958190917969" r="31.25" fill="#c990c0"/><text x="-88.78303527832031" y="-346.33052983559855" text-anchor="middle" dominant-baseline="auto" font-size="10.330578512396693" font-family="&quot;Open Sans&quot;, sans-serif" fill="#1a1b1d"><tspan>Mg2+</tspan></text></g><g class="node" data-id="4:e99be028-1f54-486a-8ee0-a10e16f78f63:55"><circle cx="134.76087951660156" cy="-41.015132904052734" r="31.25" fill="#4c8eda"/><text x="134.76087951660156" y="-41.015132904052734" text-anchor="middle" dominant-baseline="auto" font-size="10.330578512396693" font-family="&quot;Open Sans&quot;, sans-serif" fill="#1a1b1d"><tspan>Lactoco</tspan></text><text x="134.76087951660156" y="-30.684554391656043" text-anchor="middle" dominant-baseline="auto" font-size="10.330578512396693" font-family="&quot;Open Sans&quot;, sans-serif" fill="#1a1b1d"><tspan>ccus lac</tspan></text></g><g class="node" data-id="4:e99be028-1f54-486a-8ee0-a10e16f78f63:56"><circle cx="-27.751741409301758" cy="-48.63283157348633" r="31.25" fill="#c990c0"/><text x="-27.751741409301758" y="-43.46754231728798" text-anchor="middle" dominant-baseline="auto" font-size="10.330578512396693" font-family="&quot;Open Sans&quot;, sans-serif" fill="#1a1b1d"><tspan>diacetyl</tspan></text></g><g class="node" data-id="4:e99be028-1f54-486a-8ee0-a10e16f78f63:57"><circle cx="0.20591703057289124" cy="-125.20530700683594" r="31.25" fill="#c990c0"/><text x="0.20591703057289124" y="-125.20530700683594" text-anchor="middle" dominant-baseline="auto" font-size="10.330578512396693" font-family="&quot;Open Sans&quot;, sans-serif" fill="#1a1b1d"><tspan>S-lactic</tspan></text><text x="0.20591703057289124" y="-114.87472849443924" text-anchor="middle" dominant-baseline="auto" font-size="10.330578512396693" font-family="&quot;Open Sans&quot;, sans-serif" fill="#1a1b1d"><tspan>acid</tspan></text></g><g class="node" data-id="4:e99be028-1f54-486a-8ee0-a10e16f78f63:58"><circle cx="176.41502380371094" cy="-138.4409942626953" r="31.25" fill="#c990c0"/><text x="176.41502380371094" y="-138.4409942626953" text-anchor="middle" dominant-baseline="auto" font-size="10.330578512396693" font-family="&quot;Open Sans&quot;, sans-serif" fill="#1a1b1d"><tspan>acetalde</tspan></text><text x="176.41502380371094" y="-128.1104157502986" text-anchor="middle" dominant-baseline="auto" font-size="10.330578512396693" font-family="&quot;Open Sans&quot;, sans-serif" fill="#1a1b1d"><tspan>hyde</tspan></text></g><g class="node" data-id="4:e99be028-1f54-486a-8ee0-a10e16f78f63:60"><circle cx="-63.76144790649414" cy="46.822750091552734" r="31.25" fill="#c990c0"/><text x="-63.76144790649414" y="46.822750091552734" text-anchor="middle" dominant-baseline="auto" font-size="10.330578512396693" font-family="&quot;Open Sans&quot;, sans-serif" fill="#1a1b1d"><tspan>S-lactat</tspan></text><text x="-63.76144790649414" y="57.153328603949426" text-anchor="middle" dominant-baseline="auto" font-size="10.330578512396693" font-family="&quot;Open Sans&quot;, sans-serif" fill="#1a1b1d"><tspan>e</tspan></text></g><g class="node" data-id="4:e99be028-1f54-486a-8ee0-a10e16f78f63:62"><circle cx="6.075858116149902" cy="129.73167419433594" r="31.25" fill="#c990c0"/><text x="6.075858116149902" y="129.73167419433594" text-anchor="middle" dominant-baseline="auto" font-size="10.330578512396693" font-family="&quot;Open Sans&quot;, sans-serif" fill="#1a1b1d"><tspan>S-malat</tspan></text><text x="6.075858116149902" y="140.06225270673264" text-anchor="middle" dominant-baseline="auto" font-size="10.330578512396693" font-family="&quot;Open Sans&quot;, sans-serif" fill="#1a1b1d"><tspan>e</tspan></text></g><g class="node" data-id="4:e99be028-1f54-486a-8ee0-a10e16f78f63:64"><circle cx="-107.19133758544922" cy="200.07757568359375" r="31.25" fill="#4c8eda"/><text x="-107.19133758544922" y="200.07757568359375" text-anchor="middle" dominant-baseline="auto" font-size="10.330578512396693" font-family="&quot;Open Sans&quot;, sans-serif" fill="#1a1b1d"><tspan>Lactipla</tspan></text><text x="-107.19133758544922" y="210.40815419599045" text-anchor="middle" dominant-baseline="auto" font-size="10.330578512396693" font-family="&quot;Open Sans&quot;, sans-serif" fill="#1a1b1d"><tspan>ntibacill</tspan></text></g><g class="node" data-id="4:e99be028-1f54-486a-8ee0-a10e16f78f63:67"><circle cx="125.90045928955078" cy="82.57542419433594" r="31.25" fill="#4c8eda"/><text x="125.90045928955078" y="82.57542419433594" text-anchor="middle" dominant-baseline="auto" font-size="10.330578512396693" font-family="&quot;Open Sans&quot;, sans-serif" fill="#1a1b1d"><tspan>Latilact</tspan></text><text x="125.90045928955078" y="92.90600270673264" text-anchor="middle" dominant-baseline="auto" font-size="10.330578512396693" font-family="&quot;Open Sans&quot;, sans-serif" fill="#1a1b1d"><tspan>obacillu</tspan></text></g><g class="node" data-id="4:e99be028-1f54-486a-8ee0-a10e16f78f63:680"><circle cx="515.7424926757812" cy="264.5467529296875" r="31.25" fill="#c990c0"/><text x="515.7424926757812" y="264.5467529296875" text-anchor="middle" dominant-baseline="auto" font-size="10.330578512396693" font-family="&quot;Open Sans&quot;, sans-serif" fill="#1a1b1d"><tspan>acetic</tspan></text><text x="515.7424926757812" y="274.8773314420842" text-anchor="middle" dominant-baseline="auto" font-size="10.330578512396693" font-family="&quot;Open Sans&quot;, sans-serif" fill="#1a1b1d"><tspan>acid</tspan></text></g><g class="node" data-id="4:e99be028-1f54-486a-8ee0-a10e16f78f63:681"><circle cx="-126.98694610595703" cy="-177.021728515625" r="31.25" fill="#4c8eda"/><text x="-126.98694610595703" y="-177.021728515625" text-anchor="middle" dominant-baseline="auto" font-size="10.330578512396693" font-family="&quot;Open Sans&quot;, sans-serif" fill="#1a1b1d"><tspan>Acetoba</tspan></text><text x="-126.98694610595703" y="-166.6911500032283" text-anchor="middle" dominant-baseline="auto" font-size="10.330578512396693" font-family="&quot;Open Sans&quot;, sans-serif" fill="#1a1b1d"><tspan>cter ace</tspan></text></g><g class="node" data-id="4:e99be028-1f54-486a-8ee0-a10e16f78f63:682"><circle cx="-231.2935791015625" cy="-278.8443603515625" r="31.25" fill="#c990c0"/><text x="-231.2935791015625" y="-273.6790710953642" text-anchor="middle" dominant-baseline="auto" font-size="10.330578512396693" font-family="&quot;Open Sans&quot;, sans-serif" fill="#1a1b1d"><tspan>acetate</tspan></text></g><g class="node" data-id="4:e99be028-1f54-486a-8ee0-a10e16f78f63:691"><circle cx="402.0435791015625" cy="36.80064392089844" r="31.25" fill="#4c8eda"/><text x="402.0435791015625" y="36.80064392089844" text-anchor="middle" dominant-baseline="auto" font-size="10.330578512396693" font-family="&quot;Open Sans&quot;, sans-serif" fill="#1a1b1d"><tspan>Aspergil</tspan></text><text x="402.0435791015625" y="47.13122243329513" text-anchor="middle" dominant-baseline="auto" font-size="10.330578512396693" font-family="&quot;Open Sans&quot;, sans-serif" fill="#1a1b1d"><tspan>lus nige</tspan></text></g><g class="node" data-id="4:e99be028-1f54-486a-8ee0-a10e16f78f63:694"><circle cx="486.8490905761719" cy="137.1531982421875" r="31.25" fill="#c990c0"/><text x="486.8490905761719" y="137.1531982421875" text-anchor="middle" dominant-baseline="auto" font-size="10.330578512396693" font-family="&quot;Open Sans&quot;, sans-serif" fill="#1a1b1d"><tspan>succina</tspan></text><text x="486.8490905761719" y="147.4837767545842" text-anchor="middle" dominant-baseline="auto" font-size="10.330578512396693" font-family="&quot;Open Sans&quot;, sans-serif" fill="#1a1b1d"><tspan>te</tspan></text></g><g class="node" data-id="4:e99be028-1f54-486a-8ee0-a10e16f78f63:722"><circle cx="-236.5266876220703" cy="129.47543334960938" r="31.25" fill="#4c8eda"/><text x="-236.5266876220703" y="129.47543334960938" text-anchor="middle" dominant-baseline="auto" font-size="10.330578512396693" font-family="&quot;Open Sans&quot;, sans-serif" fill="#1a1b1d"><tspan>Compan</tspan></text><text x="-236.5266876220703" y="139.80601186200607" text-anchor="middle" dominant-baseline="auto" font-size="10.330578512396693" font-family="&quot;Open Sans&quot;, sans-serif" fill="#1a1b1d"><tspan>ilactoba</tspan></text></g><g class="node" data-id="4:e99be028-1f54-486a-8ee0-a10e16f78f63:723"><circle cx="-165.4852752685547" cy="10.64527702331543" r="31.25" fill="#c990c0"/><text x="-165.4852752685547" y="10.64527702331543" text-anchor="middle" dominant-baseline="auto" font-size="10.330578512396693" font-family="&quot;Open Sans&quot;, sans-serif" fill="#1a1b1d"><tspan>R-lactat</tspan></text><text x="-165.4852752685547" y="20.97585553571212" text-anchor="middle" dominant-baseline="auto" font-size="10.330578512396693" font-family="&quot;Open Sans&quot;, sans-serif" fill="#1a1b1d"><tspan>e</tspan></text></g><g class="node" data-id="4:e99be028-1f54-486a-8ee0-a10e16f78f63:727"><circle cx="-216.60110473632812" cy="-90.17274475097656" r="31.25" fill="#4c8eda"/><text x="-216.60110473632812" y="-90.17274475097656" text-anchor="middle" dominant-baseline="auto" font-size="10.330578512396693" font-family="&quot;Open Sans&quot;, sans-serif" fill="#1a1b1d"><tspan>Lactoba</tspan></text><text x="-216.60110473632812" y="-79.84216623857986" text-anchor="middle" dominant-baseline="auto" font-size="10.330578512396693" font-family="&quot;Open Sans&quot;, sans-serif" fill="#1a1b1d"><tspan>cillus ac</tspan></text></g><g class="node" data-id="4:e99be028-1f54-486a-8ee0-a10e16f78f63:728"><circle cx="364.3138732910156" cy="447.5327453613281" r="31.25" fill="#4c8eda"/><text x="364.3138732910156" y="447.5327453613281" text-anchor="middle" dominant-baseline="auto" font-size="10.330578512396693" font-family="&quot;Open Sans&quot;, sans-serif" fill="#1a1b1d"><tspan>Lactoba</tspan></text><text x="364.3138732910156" y="457.8633238737248" text-anchor="middle" dominant-baseline="auto" font-size="10.330578512396693" font-family="&quot;Open Sans&quot;, sans-serif" fill="#1a1b1d"><tspan>cillus he</tspan></text></g><g class="node" data-id="4:e99be028-1f54-486a-8ee0-a10e16f78f63:729"><circle cx="251.35385131835938" cy="408.288818359375" r="31.25" fill="#4c8eda"/><text x="251.35385131835938" y="408.288818359375" text-anchor="middle" dominant-baseline="auto" font-size="10.330578512396693" font-family="&quot;Open Sans&quot;, sans-serif" fill="#1a1b1d"><tspan>Enteroc</tspan></text><text x="251.35385131835938" y="418.6193968717717" text-anchor="middle" dominant-baseline="auto" font-size="10.330578512396693" font-family="&quot;Open Sans&quot;, sans-serif" fill="#1a1b1d"><tspan>occus f</tspan></text></g><g class="node" data-id="4:e99be028-1f54-486a-8ee0-a10e16f78f63:730"><circle cx="85.23494720458984" cy="-335.3498840332031" r="31.25" fill="#4c8eda"/><text x="85.23494720458984" y="-335.3498840332031" text-anchor="middle" dominant-baseline="auto" font-size="10.330578512396693" font-family="&quot;Open Sans&quot;, sans-serif" fill="#1a1b1d"><tspan>Glucon</tspan></text><text x="85.23494720458984" y="-325.0193055208064" text-anchor="middle" dominant-baseline="auto" font-size="10.330578512396693" font-family="&quot;Open Sans&quot;, sans-serif" fill="#1a1b1d"><tspan>obacter</tspan></text></g><g class="node" data-id="4:e99be028-1f54-486a-8ee0-a10e16f78f63:731"><circle cx="224.99020385742188" cy="-440.8497009277344" r="31.25" fill="#c990c0"/><text x="224.99020385742188" y="-440.8497009277344" text-anchor="middle" dominant-baseline="auto" font-size="10.330578512396693" font-family="&quot;Open Sans&quot;, sans-serif" fill="#1a1b1d"><tspan>ammoni</tspan></text><text x="224.99020385742188" y="-430.5191224153377" text-anchor="middle" dominant-baseline="auto" font-size="10.330578512396693" font-family="&quot;Open Sans&quot;, sans-serif" fill="#1a1b1d"><tspan>um</tspan></text></g><g class="node" data-id="4:e99be028-1f54-486a-8ee0-a10e16f78f63:68"><circle cx="280.8388977050781" cy="-353.60333251953125" r="31.25" fill="#c990c0"/><text x="280.8388977050781" y="-348.43804326333293" text-anchor="middle" dominant-baseline="auto" font-size="10.330578512396693" font-family="&quot;Open Sans&quot;, sans-serif" fill="#1a1b1d"><tspan>urea</tspan></text></g><g class="node" data-id="4:e99be028-1f54-486a-8ee0-a10e16f78f63:71"><circle cx="-59.232234954833984" cy="329.7587890625" r="31.25" fill="#c990c0"/><text x="-59.232234954833984" y="334.9240783186983" text-anchor="middle" dominant-baseline="auto" font-size="10.330578512396693" font-family="&quot;Open Sans&quot;, sans-serif" fill="#1a1b1d"><tspan>ATP</tspan></text></g></g></svg>